/vscmnt/brussel_pixiu_data/_data_brussel/112/vsc11236/PredSimResults/SUBJ11mtu3D/worker5.mot
version=1
nRows=5
nColumns=50
inDegrees=yes
endheader
                time	         pelvis_tilt	         pelvis_list	     pelvis_rotation	           pelvis_tx	           pelvis_ty	           pelvis_tz	       hip_flexion_r	     hip_adduction_r	      hip_rotation_r	        knee_angle_r	       ankle_angle_r	         mtp_angle_r	       hip_flexion_l	     hip_adduction_l	      hip_rotation_l	        knee_angle_l	       ankle_angle_l	         mtp_angle_l	    lumbar_extension	      lumbar_bending	     lumbar_rotation	 ercspn_r/activation	 intobl_r/activation	 extobl_r/activation	    abd_r/activation	    add_r/activation	hamstrings_r/activation	bifemsh_r/activation	glut_max_r/activation	iliopsoas_r/activation	rect_fem_r/activation	  vasti_r/activation	gastroc_r/activation	 soleus_r/activation	tib_ant_r/activation	 ercspn_l/activation	 intobl_l/activation	 extobl_l/activation	    abd_l/activation	    add_l/activation	hamstrings_l/activation	bifemsh_l/activation	glut_max_l/activation	iliopsoas_l/activation	rect_fem_l/activation	  vasti_l/activation	gastroc_l/activation	 soleus_l/activation	tib_ant_l/activation	
          0.00000000	        -13.34749033	         -2.70288480	         13.60076129	          0.00000000	          1.00063366	         -0.00558632	         31.78932971	        -10.48814857	         -9.89627519	          8.28835600	        -55.84427896	         -0.23538145	         -3.16807987	         -5.69627313	        -26.24526678	          1.56091227	        -38.64046657	         60.14580636	        -12.67859517	         -7.47143134	          0.47034474	          0.86164076	          0.48933973	          0.65489281	          0.12949245	          0.28524585	          0.18418678	          0.42098176	          0.30400720	          0.77199574	          0.64575034	          0.66946327	          0.11755591	          0.05762024	          0.94089696	          0.47242750	          0.27949655	          0.16736302	          0.07734614	          0.01787789	          0.18895463	          0.90617298	          0.06495306	          0.95106397	          0.05492752	          0.29964326	          0.04833704	          0.04341415	          0.96316388	
          0.01322224	        -13.85622417	         -3.66537539	         14.05859950	          0.01789957	          0.99580924	          0.00008995	         30.81355527	         -8.52102244	        -12.53905091	          9.13917848	        -53.45520869	          0.11483330	         -3.19006326	         -7.24173780	        -26.19032910	          1.32636132	        -38.50911983	         60.13722177	        -11.80037440	         -7.17058244	          1.38451897	          0.75381075	          0.43340983	          0.59924013	          0.17664961	          0.23375392	          0.19379069	          0.49028234	          0.24975979	          0.83704967	          0.59201174	          0.61979859	          0.35479252	          0.05454409	          0.78410112	          0.40130630	          0.24476326	          0.27500902	          0.06827840	          0.01465232	          0.17387684	          0.90267080	          0.06121832	          0.95399376	          0.04877267	          0.27894071	          0.03961202	          0.03558212	          0.94652255	
          0.02644449	        -14.40395556	         -4.71628478	         14.23302017	          0.03509405	          0.99150395	          0.00582633	         30.13877027	         -6.93628698	        -14.43165441	          8.84613423	        -51.18329858	          3.72981289	         -2.97168113	         -8.88522493	        -26.54007777	          0.81598851	        -38.51728295	         60.14684670	        -10.98098921	         -6.70487213	          2.51017556	          0.69957255	          0.64004233	          0.63424587	          0.14475258	          0.19155761	          0.49493886	          0.63385543	          0.20466181	          0.91338959	          0.52250837	          0.56246074	          0.64716327	          0.14459908	          0.68857055	          0.35226480	          0.21562187	          0.34900283	          0.05595738	          0.02413847	          0.16058016	          0.89887579	          0.05315197	          0.95207113	          0.04548986	          0.25408770	          0.03246238	          0.02916311	          0.93823487	
          0.03966673	        -14.83341741	         -6.22441650	         14.51207230	          0.05089904	          0.98834853	          0.01155108	         29.26062565	         -5.09360132	        -15.37924654	          9.26210397	        -50.94000183	         10.49069677	         -2.27279909	        -11.18654199	        -26.84687750	         -0.34358161	        -38.53940320	         60.16052495	        -10.46654610	         -5.59069129	          3.42926234	          0.75461403	          0.78052510	          0.63809558	          0.19093526	          0.15699843	          0.57292254	          0.67232459	          0.16770945	          0.89654293	          0.45841826	          0.51067714	          0.79553273	          0.13205994	          0.58355570	          0.29254419	          0.19288547	          0.32867921	          0.05568055	          0.03467548	          0.15860127	          0.91086006	          0.05971996	          0.95234184	          0.04096530	          0.22915909	          0.02972424	          0.02669891	          0.95901590	
          0.05288898	        -15.29023050	         -8.02419402	         14.78141255	          0.06503892	          0.98617507	          0.01727498	         28.64616491	         -3.18949557	        -15.41547153	          9.89991918	        -51.55268472	         16.98750508	         -1.00545989	        -13.89366116	        -27.26151146	         -2.06958215	        -38.67732201	         60.14124833	        -10.14985522	         -4.02566979	          4.17875805	          0.81412946	          0.86340610	          0.56386115	          0.16712652	          0.13173976	          0.54094473	          0.70619972	          0.13745089	          0.88804354	          0.40332029	          0.45896187	          0.86653642	          0.10822288	          0.50240768	          0.24883030	          0.17131260	          0.31888242	          0.06247653	          0.04574310	          0.15453831	          0.92683078	          0.06706328	          0.95938981	          0.04403948	          0.20529882	          0.02913937	          0.03025533	          0.97037516	
